Coordinates
version=1
nRows=26
nColumns=24
inDegrees=yes

Units are S.I. units (second, meters, Newtons, ...)
Angles are in degrees.

endheader
time	pelvis_tilt	pelvis_list	pelvis_rotation	pelvis_tx	pelvis_ty	pelvis_tz	hip_flexion_r	hip_adduction_r	hip_rotation_r	knee_angle_r	ankle_angle_r	subtalar_angle_r	mtp_angle_r	hip_flexion_l	hip_adduction_l	hip_rotation_l	knee_angle_l	ankle_angle_l	subtalar_angle_l	mtp_angle_l	lumbar_extension	lumbar_bending	lumbar_rotation
      0.92033333	      1.16826951	     -0.90519745	     -1.20338775	     -0.16760885	      0.97914668	      0.29897189	    -12.61517813	      4.07252457	     -8.64138651	    -12.73532484	     16.13213612	      6.51788835	      1.34182282	     21.79248927	      1.74632653	     -1.22359227	     -4.89673728	      0.41079798	     -6.32563763	     -0.91378190	     -5.10849479	      3.89101765	      6.77424073
      0.92450000	      1.04875009	     -0.84147443	     -1.21850518	     -0.16177994	      0.97848406	      0.29865032	    -12.49421508	      3.94060571	     -8.48822491	    -13.44307424	     16.21537365	      6.27926658	      1.37548501	     21.88257603	      1.88721792	     -1.10432225	     -5.14017635	      0.15453151	     -6.36868549	     -0.81030890	     -4.93275523	      3.82876431	      6.80463137
      0.92866667	      0.99182385	     -0.72282220	     -1.21835949	     -0.15586468	      0.97794990	      0.29830993	    -12.43147687	      3.74746935	     -8.38341877	    -14.17101433	     16.24342706	      6.09374858	      1.40375272	     21.89291862	      2.09229725	     -0.97850309	     -5.43037193	     -0.11858328	     -6.49838611	     -0.73026524	     -4.82237302	      3.67236490	      6.80437704
      0.93283333	      0.94521366	     -0.59582543	     -1.21936785	     -0.14993634	      0.97748492	      0.29793987	    -12.34491685	      3.53939870	     -8.27930036	    -14.96571815	     16.25761631	      5.90912088	      1.44184337	     21.88491185	      2.30923530	     -0.81496280	     -5.76244011	     -0.41363224	     -6.72391012	     -0.63862925	     -4.72684779	      3.52637654	      6.79688759
      0.93700000	      0.85324092	     -0.51216780	     -1.21365055	     -0.14406439	      0.97698594	      0.29754138	    -12.15994308	      3.37884245	     -8.15098843	    -15.84853506	     16.25969711	      5.71308893	      1.52887175	     21.92890088	      2.48917385	     -0.54084865	     -6.13998962	     -0.75752136	     -7.13040840	     -0.45649383	     -4.58973323	      3.45425070	      6.78409510
      0.94116667	      0.80105903	     -0.37619125	     -1.20456585	     -0.13809769	      0.97660947	      0.29714304	    -12.00542894	      3.16050652	     -8.04111329	    -16.75482520	     16.18960376	      5.49363095	      1.63597657	     21.92352424	      2.71989003	     -0.33626855	     -6.55515991	     -1.10211572	     -7.46957275	     -0.26371309	     -4.48371342	      3.29500803	      6.75747727
      0.94533333	      0.75256515	     -0.24683569	     -1.18504991	     -0.13213314	      0.97626570	      0.29672419	    -11.82138990	      2.94918530	     -7.93409832	    -17.71843248	     16.06738691	      5.26500313	      1.77180898	     21.92243725	      2.94689904	     -0.11857851	     -7.01905445	     -1.43858303	     -7.83608118	     -0.06049602	     -4.37636425	      3.13993091	      6.72103570
      0.94950000	      0.68773939	     -0.10692002	     -1.16793604	     -0.12613864	      0.97595963	      0.29629476	    -11.58577337	      2.72382198	     -7.81655807	    -18.74055968	     15.88173342	      5.01747867	      1.91716271	     21.93665335	      3.18174948	      0.08051722	     -7.51024179	     -1.77025938	     -8.18561771	      0.12108613	     -4.25018096	      2.98237542	      6.68124221
      0.95366667	      0.63813864	      0.03740535	     -1.14419629	     -0.12013825	      0.97571414	      0.29585428	    -11.33024086	      2.49071562	     -7.71428944	    -19.82330680	     15.64108458	      4.77209976	      2.09365307	     21.93113052	      3.42297999	      0.28644218	     -8.01712220	     -2.10544922	     -8.57365462	      0.30349211	     -4.13961779	      2.80983735	      6.63307758
      0.95783333	      0.57987575	      0.18288609	     -1.11716222	     -0.11413612	      0.97549148	      0.29538161	    -11.02689527	      2.25112044	     -7.61270608	    -20.96831911	     15.33878565	      4.52766244	      2.32377138	     21.94186320	      3.66600452	      0.48488174	     -8.55816278	     -2.42447537	     -8.98407663	      0.49968619	     -4.02395169	      2.65349008	      6.57900686
      0.96200000	      0.52734657	      0.33518136	     -1.09361474	     -0.10812221	      0.97532729	      0.29492152	    -10.68625325	      1.99717693	     -7.52579635	    -22.18354686	     14.95403344	      4.29609278	      2.55982747	     21.93475768	      3.90974791	      0.65848341	     -9.09085362	     -2.72406409	     -9.34287876	      0.66640802	     -3.90365389	      2.46076308	      6.52056082
      0.96616667	      0.47144657	      0.48388541	     -1.05791508	     -0.10213994	      0.97518798	      0.29442519	    -10.30343528	      1.74391397	     -7.44623552	    -23.45476373	     14.53258895	      4.08515149	      2.98921584	     21.94975283	      4.15709147	      0.84494519	     -9.67201618	     -3.02061200	     -9.83977788	      0.91319226	     -3.79488495	      2.29030701	      6.45954776
      0.97033333	      0.43152598	      0.66481214	     -1.04616567	     -0.09610814	      0.97512338	      0.29395447	     -9.89110868	      1.43907453	     -7.37831044	    -24.80238411	     13.97073127	      3.87301103	      3.27920245	     21.90445970	      4.41881111	      0.96741631	    -10.17881814	     -3.25122154	    -10.06875120	      1.05315787	     -3.68330794	      2.07648576	      6.39134895
      0.97450000	      0.44072620	      0.85433232	     -0.99436843	     -0.09008132	      0.97514024	      0.29338244	     -9.50861191	      1.10360166	     -7.42711043	    -26.15920072	     13.14809082	      3.73990712	      9.32732952	     21.81563180	      4.71278503	      1.14666905	    -10.71305365	     -3.49197633	    -10.54106126	      3.32475661	     -3.65067572	      1.85823550	      6.31832178
      0.97866667	      0.40022241	      1.04747128	     -1.00844961	     -0.08410758	      0.97515012	      0.29294119	     -8.99844765	      0.77051039	     -7.32166047	    -27.65463889	     12.55295543	      3.48464847	      9.37517262	     21.77944410	      4.96784223	      1.16917637	    -11.24758748	     -3.64376266	    -10.71147247	      3.31157255	     -3.54970095	      1.62930097	      6.24713070
      0.98283333	      0.33807732	      1.22639649	     -0.99607757	     -0.07818355	      0.97514462	      0.29244531	     -8.42704458	      0.44552527	     -7.25917743	    -29.19116020	     11.80576271	      3.32853148	      9.49274608	     21.77694201	      5.22194682	      1.25037309	    -11.80852519	     -3.75187244	    -10.99814769	      3.29133699	     -3.43837837	      1.42332343	      6.18091217
      0.98700000	      0.30383769	      1.43657110	     -0.99381161	     -0.07225739	      0.97521065	      0.29193849	     -7.84352183	      0.06755133	     -7.22412250	    -30.78717939	     10.97999220	      3.21169274	      9.68984814	     21.72307258	      5.50461336	      1.30957284	    -12.33240820	     -3.81111836	    -11.25867309	      3.26233970	     -3.35268300	      1.18392900	      6.10973328
      0.99116667	      0.29735174	      1.66643665	     -1.00097729	     -0.06633385	      0.97535096	      0.29146077	     -7.25485115	     -0.34032619	     -7.18599292	    -32.42465969	     10.06268641	      3.07099206	      9.85091605	     21.61049856	      5.79735128	      1.34022091	    -12.80019016	     -3.80811362	    -11.39491028	      3.24055584	     -3.29331897	      0.91451493	      6.03549059
      0.99533333	      0.28308831	      1.90363350	     -1.00922008	     -0.06046309	      0.97549829	      0.29096917	     -6.61753112	     -0.76444866	     -7.14431839	    -34.10799117	      9.08527583	      2.96771602	     10.04517350	     21.51131520	      6.09701661	      1.35814095	    -13.27799824	     -3.75973751	    -11.54802346	      3.21402565	     -3.23897724	      0.64401298	      5.95922032
      0.99950000	      0.24592378	      2.13025475	     -1.01548899	     -0.05466497	      0.97561663	      0.29048727	     -5.91291979	     -1.18350005	     -7.10539545	    -35.83823179	      8.05644194	      2.91994593	     10.38277396	     21.44846695	      6.38268096	      1.35691069	    -13.77660540	     -3.66314784	    -11.73178485	      3.16473003	     -3.16943277	      0.36889268	      5.88218674
      1.00366667	      0.28180902	      2.42729173	     -1.03181310	     -0.04882216	      0.97588488	      0.28997054	     -5.27228634	     -1.70378355	     -7.09180297	    -37.56221509	      6.88003610	      2.78475290	     15.73432403	     21.24040212	      6.74746132	      1.39312640	    -14.14871834	     -3.51822211	    -11.88626801	      2.30190885	     -3.17682298	      0.03302381	      5.81669186
      1.00783333	      0.27309670	      2.69175611	     -1.05971027	     -0.04306097	      0.97610673	      0.28954238	     -4.54247462	     -2.16803578	     -7.00352933	    -39.33395432	      5.78055013	      2.59728352	     15.73556604	     21.10442520	      7.05304109	      1.31616321	    -14.55984390	     -3.31713087	    -11.86900835	      2.30809290	     -3.13215294	     -0.26690613	      5.71981514
      1.01200000	      0.27688603	      2.96351633	     -1.08339220	     -0.03735527	      0.97635461	      0.28910961	     -3.80051571	     -2.64447746	     -6.91844723	    -41.11744995	      4.66229359	      2.46168522	     15.74462772	     20.94395018	      7.36861112	      1.24893577	    -14.94638707	     -3.07701111	    -11.88352398	      2.30906501	     -3.11595040	     -0.58471661	      5.63296287
      1.01616667	      0.30088603	      3.26268133	     -1.11179179	     -0.03167226	      0.97665182	      0.28870261	     -3.06095956	     -3.14855893	     -6.81077505	    -42.90360251	      3.56539355	      2.29198390	     15.74195929	     20.72836100	      7.71079017	      1.19139792	    -15.26376928	     -2.79967748	    -11.86675570	      2.31012106	     -3.12272916	     -0.94904198	      5.54144287
      1.02033333	      0.28335824	      3.53414548	     -1.13091683	     -0.02608021	      0.97688900	      0.28828789	     -2.24897657	     -3.62219726	     -6.70664701	    -44.69442228	      2.43699549	      2.15095406	     15.73296709	     20.57193195	      8.02169581	      1.10164223	    -15.60109424	     -2.52603379	    -11.86168791	      2.30181509	     -3.09281026	     -1.26028332	      5.45052710
      1.02450000	      0.27296517	      3.82222180	     -1.15316208	     -0.02051130	      0.97716667	      0.28790197	     -1.43066064	     -4.10485524	     -6.57288647	    -46.47099274	      1.37532779	      1.94514856	     15.70009825	     20.37354004	      8.34746883	      1.02186727	    -15.86817496	     -2.21693783	    -11.81795439	      2.29255834	     -3.06813019	     -1.60323710	      5.35133939
